# xmcd
#
# Track frame offsets: 
#        150
#        10998
#        22053
#        34206
#        46769
#        61869
#        73942
#        86325
#
# Disc length: 1349 seconds
#
# Revision: 0
# Processed by: cddbd v1.5.2PL0 Copyright (c) Steve Scherf et al.
# Submitted via: ExactAudioCopyFreeDBPlugin 1.0
#
DISCID=62054308
DTITLE=The Whiskey Daredevils - The Golden Age of Country Punk
DYEAR=2010
DGENRE=Country Punk
TTITLE0=Ida Jane
TTITLE1=The Day Evel Knievel Died
TTITLE2=Blue Eyes
TTITLE3=All Night Long
TTITLE4=Lay Em Down
TTITLE5=Jack Evans Wants His Lighter Back
TTITLE6=If Only You Were Lonely
TTITLE7=Rabbit's Foot
EXTD=
EXTT0=
EXTT1=
EXTT2=
EXTT3=
EXTT4=
EXTT5=
EXTT6=
EXTT7=
PLAYORDER=
